<svg width="10" height="10" viewBox="0 0 10 10" fill="none" xmlns="http://www.w3.org/2000/svg">
<path d="M9.85378 9.14625C9.90024 9.1927 9.93709 9.24785 9.96223 9.30855C9.98737 9.36925 10.0003 9.4343 10.0003 9.5C10.0003 9.5657 9.98737 9.63075 9.96223 9.69145C9.93709 9.75214 9.90024 9.80729 9.85378 9.85375C9.80733 9.9002 9.75218 9.93705 9.69148 9.96219C9.63078 9.98734 9.56573 10.0003 9.50003 10.0003C9.43433 10.0003 9.36928 9.98734 9.30858 9.96219C9.24789 9.93705 9.19274 9.9002 9.14628 9.85375L5.00003 5.70687L0.853784 9.85375C0.759963 9.94757 0.632716 10.0003 0.500034 10.0003C0.367352 10.0003 0.240104 9.94757 0.146284 9.85375C0.0524635 9.75993 -0.000244138 9.63268 -0.000244141 9.5C-0.000244143 9.36732 0.0524635 9.24007 0.146284 9.14625L4.29316 5L0.146284 0.853749C0.0524635 0.759929 -0.000244141 0.632681 -0.000244141 0.499999C-0.000244141 0.367317 0.0524635 0.24007 0.146284 0.14625C0.240104 0.0524292 0.367352 -0.000278473 0.500034 -0.000278473C0.632716 -0.000278473 0.759963 0.0524292 0.853784 0.14625L5.00003 4.29312L9.14628 0.14625C9.2401 0.0524292 9.36735 -0.000278476 9.50003 -0.000278473C9.63271 -0.00027847 9.75996 0.0524292 9.85378 0.14625C9.9476 0.24007 10.0003 0.367317 10.0003 0.499999C10.0003 0.632681 9.9476 0.759929 9.85378 0.853749L5.70691 5L9.85378 9.14625Z" fill="#794FED"/>
</svg>

